<?xml version="1.0" encoding="UTF-8"?><svg xmlns="http://www.w3.org/2000/svg" viewBox="0 0 325 419.24"><defs><style>.d{fill:#f5f8fa;}.e{fill:#34487b;}.f{fill:#4369b1;}</style></defs><g id="a"/><g id="b"><g id="c"><g><circle class="e" cx="162" cy="29" r="29"/><circle class="f" cx="162.5" cy="191.5" r="162.5"/><circle class="d" cx="162.5" cy="191.5" r="122.5"/><rect class="e" x="151" y="178" width="127" height="29" rx="14.5" ry="14.5"/><rect class="e" x="147" y="178" width="129" height="29" rx="14.5" ry="14.5"/><rect class="e" x="126.24" y="209.96" width="98.13" height="29" rx="14.5" ry="14.5" transform="translate(302.75 -30.24) rotate(64.57)"/></g><g><path class="e" d="M71.48,402.87l-1.15,1.15c-6.46,6.46-15.08,15.22-24.84,15.22-8.54,0-13.64-5.82-13.64-12.85,0-6.1,3.66-11.63,8.62-15.29-1.22-2.01-1.79-4.31-1.79-6.61,0-9.91,9.33-18.81,20.68-18.81,4.38,0,8.4,2.66,8.4,7.39,0,2.8-1.51,5.38-3.81,7.32-.65,.57-1.44,.86-2.08,.86-1.79,0-3.3-1.65-3.3-3.37,0-.86,.36-1.72,1.22-2.44,1.22-1,1.51-1.94,1.51-2.37,0-.86-1.36-.93-1.94-.93-8.26,0-14.21,6.46-14.21,12.35,0,1.29,.36,2.51,1,3.45,2.15-.79,4.45-1.44,6.75-1.44,3.16,0,5.1,2.3,5.1,4.67,0,2.58-2.23,5.24-7.47,5.24-1.94,0-3.59-.36-5.03-.93-4.02,2.51-7.18,6.53-7.18,10.91,0,3.45,2.15,6.39,7.18,6.39,7.11,0,14.57-7.68,20.25-13.35l1.15-1.15c.72-.72,1.51-1,2.3-1,1.72,0,3.3,1.58,3.3,3.3,0,.79-.29,1.58-1.01,2.3Z"/><path class="e" d="M124.17,402.87l-1.15,1.15c-5.6,5.6-9.98,9.76-14.36,9.76s-5.81-3.59-5.81-6.68c0-4.09,2.37-7.83,2.37-11.85,0-.93-.29-1.22-.72-1.22-4.02,0-11.49,15.22-12.56,17.88-.5,1.29-1.44,2.01-2.73,2.01-1.72,0-3.52-1.15-3.52-3.09,0-.36,0-.72,.14-1.15,1.29-3.66,2.87-8.69,2.87-12.56,0-2.3-1.01-2.37-1.15-2.37-3.59,0-12.13,16.8-13.5,19.24-.65,1.22-1.65,1.72-2.66,1.72-1.65,0-3.37-1.44-3.37-3.3,0-.5,.14-.93,.29-1.36,0,0,2.08-5.46,2.73-7.75l-.72,.72c-.72,.72-1.51,1.01-2.3,1.01-1.72,0-3.3-1.58-3.3-3.3,0-.79,.29-1.58,1.01-2.3l1.15-1.15c3.23-3.23,4.31-4.24,5.1-5.03,.93-.86,2.3-1.44,3.59-1.44,1.36,0,2.58,.57,3.09,2.15,2.73-3.3,5.74-5.67,8.9-5.67,3.73,0,6.17,2.51,7.11,5.67,2.94-3.59,6.39-6.39,9.84-6.39,4.59,0,7.18,3.16,7.18,7.68,0,3.02-1.29,5.89-1.94,8.76-.22,.86-.5,2.01-.5,2.66,0,.29,.07,.43,.22,.43s.36-.07,.72-.29c.5-.29,1.15-.86,1.72-1.29,2.44-1.87,5.17-4.74,6.53-6.1l1.15-1.15c.72-.72,1.51-1,2.3-1,1.72,0,3.3,1.58,3.3,3.3,0,.79-.29,1.58-1.01,2.3Z"/><path class="e" d="M156.9,402.87l-1.15,1.15c-2.37,2.37-5.89,3.52-9.05,3.52-.43,0-.93-.07-1.36-.14-2.01,5.46-6.46,10.19-12.64,10.19-5.53,0-9.19-4.38-9.19-11.06,0-1.15,.07-2.3,.29-3.37l-.79,.86c-.65,.72-1.51,1.01-2.3,1.01-1.72,0-3.3-1.58-3.3-3.3,0-.79,.29-1.58,1.01-2.3l1.15-1.15c6.03-6.03,11.85-9.98,18.16-9.98,2.23,0,3.88,.86,3.88,3.16,0,.93-.36,1.87-.93,2.51l.79-.07c3.73,0,5.17,4.09,5.17,7.18,2.23,0,3.95-1.08,4.52-1.65l1.15-1.15c.72-.72,1.51-1,2.3-1,1.72,0,3.3,1.58,3.3,3.3,0,.79-.29,1.58-1.01,2.3Zm-18.31-7.83h-.22c-.22,0-.72-.14-.72-.14-1.94,.07-7.68,3.8-7.68,11.63,0,4.16,1.79,4.59,2.73,4.59,2.08,0,5.67-2.15,6.96-6.68-1.44-1.51-2.44-3.45-2.44-5.6,0-1.44,.43-2.87,1.36-3.8Z"/><path class="e" d="M177.43,394.47h-16.15c-1.29,2.8-2.58,5.74-3.37,7.9-.57,1.58-.93,3.23-.93,4.45,0,1.01,.29,1.65,.86,1.65s1.36-.21,2.15-1.22c.5-.65,1.58-.93,2.23-.93,1.79,0,3.09,1.79,3.09,3.52,0,.86-.43,1.72-1.29,2.44-2.08,1.87-4.09,2.8-6.53,2.8-4.95,0-6.89-3.73-6.89-8.18,0-2.08,.43-4.38,1.22-6.53,.65-1.72,1.72-4.38,2.58-6.32-1-.43-1.72-1.36-1.72-2.87,0-1.65,1.08-3.16,3.23-3.16h1.29c2.87-5.89,5.6-10.77,7.04-13.5,.65-1.22,1.72-1.72,2.8-1.72,1.72,0,3.37,1.36,3.37,3.16,0,.5-.14,1-.43,1.58-.93,1.72-3.09,5.6-5.6,10.55,.79,0,8.62-.07,12.85-.07,2.58,0,3.16,1.51,3.16,3.16,0,1.51-.65,3.3-2.94,3.3Z"/><path class="e" d="M189.78,404.02c-4.88,4.88-10.27,9.98-15.22,9.98-3.95,0-6.25-2.73-6.25-6.32,0-4.31,4.31-13.78,6.17-17.8,.65-1.36,1.72-1.87,2.8-1.87,1.65,0,3.45,1.29,3.45,3.16,0,.43-.14,.93-.36,1.44-.93,2.01-3.73,8.54-4.95,12.42-.43,1.22-.57,1.87-.57,2.23,0,.21,.07,.36,.29,.36s.57-.14,1.15-.43c3.16-1.72,8.33-7.18,10.05-8.9,.65-.65,1.51-.93,2.3-.93,1.58,0,3.09,1.15,3.09,2.94,0,1.08-.58,2.37-1.94,3.73Zm-3.16-24.84l-1.94,1.94c-.72,.72-1.51,1-2.3,1-1.72,0-3.3-1.58-3.3-3.3,0-.79,.29-1.58,1-2.3l1.94-1.94c.72-.72,1.51-1,2.3-1,1.72,0,3.3,1.58,3.3,3.3,0,.79-.29,1.58-1,2.3Z"/><path class="e" d="M243.62,402.87l-1.15,1.15c-5.6,5.6-9.98,9.76-14.36,9.76s-5.81-3.59-5.81-6.68c0-4.09,2.37-7.83,2.37-11.85,0-.93-.29-1.22-.72-1.22-4.02,0-11.49,15.22-12.56,17.88-.5,1.29-1.44,2.01-2.73,2.01-1.72,0-3.52-1.15-3.52-3.09,0-.36,0-.72,.14-1.15,1.29-3.66,2.87-8.69,2.87-12.56,0-2.3-1-2.37-1.15-2.37-3.59,0-12.13,16.8-13.5,19.24-.65,1.22-1.65,1.72-2.66,1.72-1.65,0-3.37-1.44-3.37-3.3,0-.5,.14-.93,.29-1.36,0,0,2.08-5.46,2.73-7.75l-.72,.72c-.72,.72-1.51,1.01-2.3,1.01-1.72,0-3.3-1.58-3.3-3.3,0-.79,.29-1.58,1-2.3l1.15-1.15c3.23-3.23,4.31-4.24,5.1-5.03,.93-.86,2.3-1.44,3.59-1.44,1.36,0,2.58,.57,3.09,2.15,2.73-3.3,5.74-5.67,8.9-5.67,3.73,0,6.17,2.51,7.11,5.67,2.94-3.59,6.39-6.39,9.84-6.39,4.59,0,7.18,3.16,7.18,7.68,0,3.02-1.29,5.89-1.94,8.76-.21,.86-.5,2.01-.5,2.66,0,.29,.07,.43,.21,.43s.36-.07,.72-.29c.5-.29,1.15-.86,1.72-1.29,2.44-1.87,5.17-4.74,6.53-6.1l1.15-1.15c.72-.72,1.51-1,2.3-1,1.72,0,3.3,1.58,3.3,3.3,0,.79-.29,1.58-1,2.3Z"/><path class="e" d="M266.74,402.87l-1.15,1.15c-4.45,4.45-11.42,10.41-18.09,10.41s-9.62-5.74-9.62-11.63c0-9.91,8.33-16.66,14.07-16.66,4.24,0,7.04,3.16,7.04,6.96,0,7.47-7.9,10.7-14.5,11.49,.29,1.72,1.08,3.38,3.02,3.38,4.24,0,10.62-5.67,13.5-8.54l1.15-1.15c.72-.72,1.51-1,2.3-1,1.72,0,3.3,1.58,3.3,3.3,0,.79-.29,1.58-1,2.3Zm-14.79-10.27c-2.58,0-4.95,2.51-6.32,5.31,3.3-.65,6.89-2.15,6.89-4.81,0-.36-.07-.5-.57-.5Z"/><path class="e" d="M278.37,389.59c3.8,1.87,5.38,3.88,5.38,6.96,0,5.31-4.81,10.12-5.96,12.99-.14,.29-.14,.57-.14,.72,0,.36,.14,.43,.5,.43,1.65,0,4.67-1.29,6.75-4.74,.72-1.15,1.72-1.65,2.73-1.65,1.72,0,3.37,1.44,3.37,3.23,0,.57-.14,1.15-.5,1.72-3.01,5.1-8.04,7.9-12.35,7.9-3.45,0-7.18-2.08-7.18-6.68s5.31-9.33,6.17-13c.07-.21,.07-.36,.07-.5,0-.43-.22-.72-.65-1-.86-.65-1.94-1.15-3.09-1.72-1.94,2.94-4.45,6.32-6.75,8.62l-1.15,1.15c-.72,.72-1.51,1.01-2.3,1.01-1.72,0-3.3-1.58-3.3-3.3,0-.79,.29-1.58,1-2.3l1.15-1.15c2.01-2.01,4.31-5.03,6.03-7.68-.65-.86-1.08-1.79-1.08-3.02,0-3.3,2.51-4.81,4.95-4.81,2.3,0,4.45,1.29,4.45,3.8,0,.57-.43,1.94-.5,1.87,0,0,1.08,.5,2.37,1.15Z"/></g></g></g></svg>